<?xml version="1.0" encoding="UTF-8" standalone="no"?>
<svg xmlns="http://www.w3.org/2000/svg"
     width="32mm"
     height="32.000999mm"
     viewBox="0 0 32 32.000999">

    <path fill="#222222"
          style="stroke:#000000;stroke-width:0;stroke-dasharray:none;stroke-opacity:1"
          d="M 7.3173828,1.8463989 V 31.561898 h 6.8068212 v -9.68158 l 7.11016,9.68158 H 30.40073 L 18.103289,16.70389 l 0.01189,-0.01447 c -0.0081,-0.0058 -0.01594,-0.01229 -0.02377,-0.01809 -0.0196,-0.01842 -0.03406,-0.04129 -0.05219,-0.06098 -0.03322,-0.03818 -0.06325,-0.07859 -0.09095,-0.120923 -0.02498,-0.03853 -0.04894,-0.07806 -0.07441,-0.116272 -0.02733,-0.03992 -0.05514,-0.07931 -0.08372,-0.118339 -0.02951,-0.03898 -0.05609,-0.08026 -0.0832,-0.120923 -0.01072,-0.01472 -0.02218,-0.02884 -0.03307,-0.04341 -0.04587,-0.01082 -0.09419,-0.0272 -0.145211,-0.05013 -0.02025,-0.0091 -0.0402,-0.01828 -0.06046,-0.02739 -0.176658,-0.07341 -0.354259,-0.145769 -0.537952,-0.199988 -0.291763,-0.08476 -0.58633,-0.159273 -0.88315,-0.224275 -0.245732,-0.05386 -0.491838,-0.105079 -0.740007,-0.146762 -0.221254,-0.03761 -0.441956,-0.078 -0.664559,-0.10697 -0.173279,-0.01846 -0.347032,-0.03803 -0.521415,-0.04186 0.01877,-0.05538 0.03765,-0.109595 0.05839,-0.161747 -8.72e-4,7.3e-5 -0.0017,4.61e-4 -0.0026,5.17e-4 -6.81e-4,1.05e-4 -0.0015,-9.5e-5 -0.0021,0 -6.81e-4,9.8e-5 -0.0015,-3.83e-4 -0.0021,5.17e-4 -6.81e-4,5.6e-5 -0.002,-5.17e-4 -0.0031,-5.17e-4 -0.0045,2.26e-4 -0.009,-3.83e-4 -0.01344,5.17e-4 -0.0046,6.56e-4 -0.0088,3.2e-5 -0.01344,5.16e-4 -0.0038,6.55e-4 -0.0065,10e-4 -0.0078,-5.16e-4 h -0.001 c -2.55e-4,1.48e-4 -0.0012,5.16e-4 -0.0015,5.16e-4 -2.66e-4,8.2e-5 -0.0018,1.18e-4 -0.0021,5.17e-4 -6.81e-4,1.34e-4 -0.002,-10e-6 -0.0031,0 -6.81e-4,-2.39e-4 -0.0015,2.09e-4 -0.0021,-5.17e-4 -2.45e-4,-1.21e-4 -0.001,4.18e-4 -0.001,-5.16e-4 -10e-4,-6.55e-4 -0.0024,-0.0021 -0.0031,-0.0031 l -10e-4,5.17e-4 v -0.0031 -5.17e-4 c -3.03e-4,-0.0013 -10e-4,-0.0019 -10e-4,-0.0031 7.4e-5,-3.21e-4 10e-4,-10e-4 10e-4,-10e-4 v -10e-4 V 1.8463989 Z M 21.870501,2.1652425 c -0.01542,0.02199 -0.0306,0.044146 -0.04599,0.066146 0.03087,9.83e-4 0.05866,0.00479 0.0863,0.00879 -0.01389,-0.02465 -0.02695,-0.049861 -0.04031,-0.074931 z"/>
    <path fill="#33c275"
          style="stroke:#33c275;stroke-width:3.85275;stroke-miterlimit:4;stroke-dasharray:none;stroke-opacity:1"
          d="m 9.8961003,17.834464 c 1.7388297,0.667131 -1.8158711,1.629846 0,0.275953 C 35.006033,-3.3365556 35.783679,-5.4908856 11.055635,26.144536 9.8971323,27.070541 9.5712773,24.90414 9.1728106,25.036954 8.9037389,24.694549 -4.6162962,4.1388164 9.8961003,17.834464 Z"/>
</svg>
