<?xml version="1.0" encoding="UTF-8" standalone="no"?>
<svg xmlns="http://www.w3.org/2000/svg"
     width="125mm"
     height="32.000999mm"
     viewBox="0 0 125 32.000999">

    <path fill="#464e53"
          style="stroke:#464e53;stroke-width:1.92368;stroke-opacity:1"
          d="m 89.771272,13.30203 -2.749186,14.163993 h 3.436483 l 1.666566,-9.768911 2.770371,9.768911 h 3.061831 l 2.770373,-9.768911 1.66658,9.768911 h 3.43702 L 103.08159,13.30203 h -3.707803 l -2.936773,9.935829 -2.957957,-9.935829 z"/>
    <path fill="#464e53"
          style="stroke:#464e53;stroke-width:1.92368;stroke-opacity:1"
          d="m 71.200313,13.30203 v 8.644433 c 0,3.770167 2.166024,5.727817 5.852873,5.727817 3.686846,0 5.85339,-1.95765 5.85339,-5.727817 V 13.30203 h -3.124875 v 8.186063 c 0,1.957987 -0.583062,3.061829 -2.728515,3.061829 -2.124624,0 -2.728517,-1.103842 -2.728517,-3.061829 V 13.30203 Z"/>
    <path fill="#464e53"
          style="stroke:#464e53;stroke-width:1.92368;stroke-opacity:1"
          d="m 55.057627,13.30203 v 14.163993 h 3.124357 V 21.13411 l 4.47828,6.331913 h 4.207495 l -5.644616,-7.081737 5.436361,-7.082256 h -3.99924 l -4.47828,6.332431 V 13.30203 Z"/>
    <path fill="#464e53"
          style="stroke:#464e53;stroke-width:1.92368;stroke-opacity:1"
          d="m 38.090188,13.30203 v 8.644433 c 0,3.770167 2.166026,5.727817 5.852873,5.727817 3.686846,0 5.85339,-1.95765 5.85339,-5.727817 V 13.30203 h -3.124359 v 8.186063 c 0,1.957987 -0.583578,3.061829 -2.729031,3.061829 -2.124624,0 -2.728516,-1.103842 -2.728516,-3.061829 V 13.30203 Z"/>
    <path fill="#464e53"
          style="stroke:#464e53;stroke-width:1.92368;stroke-opacity:1"
          d="m 116.49943,13.093775 c -3.91598,0 -7.29002,3.374538 -7.29002,7.290511 0,3.915973 3.37404,7.289994 7.29002,7.289994 3.91597,0 7.29051,-3.374021 7.29051,-7.289994 0,-3.915973 -3.37454,-7.290511 -7.29051,-7.290511 z m 0,3.103685 c 2.18711,0 4.16615,1.978526 4.16615,4.165638 0,2.187113 -1.97904,4.186824 -4.16615,4.186824 -2.18712,0 -4.16564,-1.999711 -4.16564,-4.186824 0,-2.187112 1.97852,-4.165638 4.16564,-4.165638 z"/>
    <path fill="#464e53"
          d="M 14.196552,1.8463989 V 31.561898 h 6.806823 v -9.68158 l 7.11016,9.68158 h 9.166366 L 24.98246,16.70389 24.99435,16.68942 c -0.0081,-0.0058 -0.01594,-0.01229 -0.02377,-0.01809 -0.0196,-0.01842 -0.03406,-0.04129 -0.05219,-0.06098 -0.03322,-0.03818 -0.06325,-0.07859 -0.09095,-0.120923 -0.02498,-0.03853 -0.04894,-0.07806 -0.07441,-0.116272 -0.02733,-0.03992 -0.05514,-0.07931 -0.08372,-0.118339 -0.02951,-0.03898 -0.05609,-0.08026 -0.0832,-0.120923 -0.01072,-0.01472 -0.02218,-0.02884 -0.03307,-0.04341 -0.04587,-0.01082 -0.09419,-0.0272 -0.145211,-0.05013 -0.02025,-0.0091 -0.0402,-0.01828 -0.06046,-0.02739 -0.176658,-0.07341 -0.354259,-0.145769 -0.537952,-0.199988 -0.291763,-0.08476 -0.58633,-0.159273 -0.88315,-0.224275 -0.245732,-0.05386 -0.491838,-0.105079 -0.740007,-0.146762 -0.221254,-0.03761 -0.441956,-0.078 -0.664559,-0.10697 -0.173279,-0.01846 -0.347032,-0.03803 -0.521415,-0.04186 0.01877,-0.05538 0.03765,-0.109595 0.05839,-0.161747 -8.72e-4,7.3e-5 -0.0017,4.61e-4 -0.0026,5.17e-4 -6.81e-4,1.05e-4 -0.0015,-9.5e-5 -0.0021,0 -6.81e-4,9.8e-5 -0.0015,-3.83e-4 -0.0021,5.17e-4 -6.81e-4,5.6e-5 -0.002,-5.17e-4 -0.0031,-5.17e-4 -0.0045,2.26e-4 -0.009,-3.83e-4 -0.01344,5.17e-4 -0.0046,6.56e-4 -0.0088,3.2e-5 -0.01344,5.16e-4 -0.0038,6.55e-4 -0.0065,10e-4 -0.0078,-5.16e-4 h -10e-4 c -2.55e-4,1.48e-4 -0.0012,5.16e-4 -0.0015,5.16e-4 -2.66e-4,8.2e-5 -0.0018,1.18e-4 -0.0021,5.17e-4 -6.81e-4,1.34e-4 -0.002,-10e-6 -0.0031,0 -6.81e-4,-2.39e-4 -0.0015,2.09e-4 -0.0021,-5.17e-4 -2.45e-4,-1.21e-4 -0.001,4.18e-4 -0.001,-5.16e-4 -10e-4,-6.55e-4 -0.0024,-0.0021 -0.0031,-0.0031 l -10e-4,5.17e-4 v -0.0031 -5.17e-4 c -3.03e-4,-0.0013 -0.001,-0.0019 -0.001,-0.0031 7.4e-5,-3.21e-4 0.001,-10e-4 0.001,-10e-4 v -10e-4 -13.2746961 z m 14.55312,0.3188436 c -0.01542,0.02199 -0.0306,0.044146 -0.04599,0.066146 0.03087,9.83e-4 0.05866,0.00479 0.0863,0.00879 -0.01389,-0.02465 -0.02695,-0.049861 -0.04031,-0.074931 z"/>
    <path fill="#33c275"
          style="stroke:#33c275;stroke-width:3.85275;stroke-miterlimit:4;stroke-dasharray:none;stroke-opacity:1"
          d="m 16.775271,17.834464 c 1.73883,0.667131 -1.815872,1.629846 0,0.275953 25.109933,-21.4469726 25.887579,-23.6013026 1.159535,8.034119 -1.158503,0.926005 -1.484358,-1.240396 -1.882825,-1.107582 -0.269072,-0.342405 -13.7891103,-20.8981376 0.72329,-7.20249 z"/>
</svg>