<?xml version="1.0" encoding="UTF-8" standalone="no"?>
<!--
  - This Source Code Form is subject to the terms of the Mozilla Public
  - License, v. 2.0. If a copy of the MPL was not distributed with this
  - file, You can obtain one at https://mozilla.org/MPL/2.0/.
  -->

<svg
   xmlns:dc="http://purl.org/dc/elements/1.1/"
   xmlns:cc="http://creativecommons.org/ns#"
   xmlns:rdf="http://www.w3.org/1999/02/22-rdf-syntax-ns#"
   xmlns:svg="http://www.w3.org/2000/svg"
   xmlns="http://www.w3.org/2000/svg"
   xmlns:sodipodi="http://sodipodi.sourceforge.net/DTD/sodipodi-0.dtd"
   xmlns:inkscape="http://www.inkscape.org/namespaces/inkscape"
   width="12.423388mm"
   height="17.302441mm"
   viewBox="0 0 12.423388 17.302441"
   version="1.1"
   id="svg1860"
   inkscape:version="1.0.2 (1.0.2+r75+1)"
   sodipodi:docname="kukumo.svg">
  <defs
     id="defs1854" />
  <sodipodi:namedview
     id="base"
     pagecolor="#ffffff"
     bordercolor="#666666"
     borderopacity="1.0"
     inkscape:pageopacity="0.0"
     inkscape:pageshadow="2"
     inkscape:zoom="0.35"
     inkscape:cx="272.35213"
     inkscape:cy="467.27918"
     inkscape:document-units="mm"
     inkscape:current-layer="layer1"
     inkscape:document-rotation="0"
     showgrid="false"
     fit-margin-top="0"
     fit-margin-left="0"
     fit-margin-right="0"
     fit-margin-bottom="0"
     inkscape:window-width="1483"
     inkscape:window-height="969"
     inkscape:window-x="1920"
     inkscape:window-y="49"
     inkscape:window-maximized="0" />
  <metadata
     id="metadata1857">
    <rdf:RDF>
      <cc:Work
         rdf:about="">
        <dc:format>image/svg+xml</dc:format>
        <dc:type
           rdf:resource="http://purl.org/dc/dcmitype/StillImage" />
        <dc:title></dc:title>
      </cc:Work>
    </rdf:RDF>
  </metadata>
  <g
     inkscape:label="Capa 1"
     inkscape:groupmode="layer"
     id="layer1"
     transform="translate(-33.773499,-24.532383)">
    <path
       d="m 38.191516,41.501663 q -1.271223,0 -1.271223,-1.47672 v -13.70576 q 0,-1.45364 1.271223,-1.45364 1.291728,0 1.291728,1.45364 v 8.51419 h 0.04102 l 3.383095,-4.01482 q 0.410072,-0.46147 0.717625,-0.71529 0.307555,-0.2538 0.840649,-0.2538 0.533095,0 0.79964,0.32302 0.287052,0.29997 0.287052,0.73835 0,0.4384 -0.369067,0.8768 l -3.075541,3.64566 3.424102,4.15325 q 0.369067,0.4384 0.328059,0.89988 -0.0205,0.4384 -0.328059,0.73836 -0.307553,0.27688 -0.779136,0.27688 -0.574099,0 -0.922664,-0.2538 -0.328055,-0.25382 -0.738128,-0.76144 l -3.567627,-4.19942 h -0.04102 v 3.73794 q 0,1.47672 -1.291728,1.47672 z"
       style="font-style:normal;font-variant:normal;font-weight:bold;font-stretch:normal;font-size:10.5833px;line-height:1.25;font-family:Nunito;-inkscape-font-specification:'Nunito, Bold';font-variant-ligatures:normal;font-variant-caps:normal;font-variant-numeric:normal;font-variant-east-asian:normal;white-space:pre;fill:#155724;fill-opacity:0;stroke:#cab3b3;stroke-width:0.666321;stroke-miterlimit:4;stroke-dasharray:none;stroke-opacity:1"
       id="path1818" />
    <path
       id="path1820"
       style="font-style:normal;font-variant:normal;font-weight:bold;font-stretch:normal;font-size:10.5833px;line-height:1.25;font-family:Nunito;-inkscape-font-specification:'Nunito, Bold';font-variant-ligatures:normal;font-variant-caps:normal;font-variant-numeric:normal;font-variant-east-asian:normal;white-space:pre;fill:#cab3b3;fill-opacity:1;stroke:#cab3b3;stroke-width:0.666321;stroke-linecap:round;stroke-miterlimit:4;stroke-dasharray:none;stroke-opacity:1"
       d="m 35.302404,28.576233 c -0.788071,0.13959 -1.525247,1.06581 -1.050956,1.83871 0.415908,0.64985 0.99096,1.18062 1.482873,1.77322 l 4.656681,5.14586 c 0.842023,-0.87872 3.301365,-3.60238 4.934599,-5.40573 0.460891,-0.48888 0.501564,-1.32177 -0.06033,-1.75581 -0.465077,-0.55169 -1.330477,-0.53095 -1.793513,0.008 -1.033646,1.13251 -2.033239,2.29686 -3.053406,3.44198 -1.357576,-1.53044 -2.700338,-3.07456 -4.06738,-4.59624 -0.274599,-0.27198 -0.572685,-0.53428 -0.971915,-0.46357 z"
       sodipodi:nodetypes="sccccccccss" />
  </g>
</svg>