<?xml version="1.0" encoding="utf-8"?>
<!-- Generator: Adobe Illustrator 27.5.0, SVG Export Plug-In . SVG Version: 6.00 Build 0)  -->
<svg version="1.1" id="Capa_1" xmlns="http://www.w3.org/2000/svg" xmlns:xlink="http://www.w3.org/1999/xlink" x="0px" y="0px"
	 viewBox="0 0 149.78 61.33" style="enable-background:new 0 0 149.78 61.33;" xml:space="preserve">
<style type="text/css">
	.st0{fill:none;stroke:#000000;stroke-miterlimit:10;}
	.st1{stroke:#000000;stroke-miterlimit:10;}
	.st2{stroke:#000000;stroke-linecap:round;stroke-linejoin:round;stroke-miterlimit:10;}
	.st3{fill:none;stroke:#000000;stroke-linecap:round;stroke-linejoin:round;stroke-miterlimit:10;}
	.st4{fill:#FFFFFF;stroke:#000000;stroke-miterlimit:10;}
	.st5{fill:#FFFFFF;stroke:#000000;stroke-linecap:round;stroke-miterlimit:10;}
	.st6{clip-path:url(#SVGID_00000068646397585509355770000005928076644854902165_);}
	.st7{clip-path:url(#SVGID_00000059274811304216672240000004096406884275298185_);}
	.st8{clip-path:url(#SVGID_00000100379999532982796700000013481169699271548858_);}
	.st9{clip-path:url(#SVGID_00000005989561465126085070000004714461842745389481_);}
	.st10{clip-path:url(#SVGID_00000042712839077080198410000012683919909353105855_);}
	.st11{clip-path:url(#SVGID_00000029003411363829476040000005002676818090656900_);}
	.st12{clip-path:url(#SVGID_00000096760505825391515080000007858388333955169705_);}
	.st13{clip-path:url(#SVGID_00000057826724652240365210000004583674980440958642_);}
	.st14{clip-path:url(#SVGID_00000072276674843534672460000009452044634757869700_);}
	.st15{clip-path:url(#SVGID_00000008112712120561705450000013751058245426181019_);}
	.st16{clip-path:url(#SVGID_00000171698264375156619010000007131247564846764931_);}
	.st17{clip-path:url(#SVGID_00000072990510019888613710000012825564060334432926_);}
	.st18{clip-path:url(#SVGID_00000181052243824208319580000007966184465030698141_);}
	.st19{clip-path:url(#SVGID_00000026124671718605977940000006013952865672634555_);}
	.st20{clip-path:url(#SVGID_00000023976110119733330370000018081081831684075198_);}
	.st21{fill-rule:evenodd;clip-rule:evenodd;fill:#020203;}
	.st22{fill:none;stroke:#000000;stroke-width:2;stroke-miterlimit:10;}
	.st23{clip-path:url(#SVGID_00000150802744013380378870000009582343584844952469_);}
</style>
<g>
	<polygon points="18.16,22.42 17.08,22.42 17.08,23.7 15.8,23.7 15.8,24.78 17.08,24.78 17.08,26.06 17.45,26.06 17.45,27.71 
		17.79,27.71 17.79,26.06 18.16,26.06 18.16,24.78 19.44,24.78 19.44,23.7 18.16,23.7 	"/>
	<g>
		<path d="M5.18,10.43c1.09-1.61,1.28-1.64,1.28-1.64S5.42,8.46,4.77,9.41c-1.09,1.6-1.27,1.64-1.27,1.64S4.54,11.37,5.18,10.43"/>
		<path d="M11.76,38.78l12.84,12.84c-0.72-3.24-2.33-6.31-4.83-8.81l-6.01-6.01L11.76,38.78z"/>
		<path d="M8,42.54l16.68,16.68c0.23-1.2,0.35-2.41,0.35-3.63L9.99,40.55L8,42.54z"/>
		<path d="M4.25,46.29l15.04,15.04c1.21,0,2.43-0.11,3.63-0.35L6.24,44.3L4.25,46.29z"/>
		<path d="M7.15,17.37c1.23,0,2.31-0.63,2.93-1.59c0.63,0.96,1.71,1.59,2.93,1.59c1.23,0,2.31-0.63,2.93-1.59
			c0.63,0.96,1.71,1.59,2.93,1.59c0.49,0,0.95-0.1,1.37-0.28l-0.63,1.51H6.4l-0.63-1.51C6.2,17.27,6.66,17.37,7.15,17.37
			 M7.29,13.75c0.99-2.54,4.21-3.8,5.69-4.85c0.41-0.29,1.23-1.11,1.22-2.19c-0.02-1.24-1.01-2.25-2.25-2.25
			c-1.16,0-2.85,1.31-3.66,2.1C8.05,6.19,7.8,6.01,7.43,5.87C8.16,4.6,8.43,3.42,8.62,2.1c0.49,0.21,1.02,0.32,1.58,0.32
			c0.93,0,1.79-0.32,2.48-0.85c0.83,0.85,1.99,1.37,3.27,1.37c0.1,0,0.19,0,0.29-0.01c0.12,1.29,0.74,2.43,1.67,3.23
			c-0.55,0.46-1,0.96-1.44,1.61c-0.96,1.4-1.96,2.11-2.63,2.46c-0.6,0.31-1.05,0.4-1.19,0.41c0.08,0.36,0.12,0.7,0.12,1.08
			c0,0.67-0.12,1.31-0.35,1.9L13.35,14c0.27-0.7,0.42-1.46,0.42-2.26c0-0.09,0-0.18-0.01-0.28c0.93-0.36,2.32-1.19,3.6-3.07
			c1.05-1.55,2.24-2.16,3.19-2.38c-0.22,0.51-0.36,1.06-0.4,1.64c-0.08,0.95,0.1,1.87,0.49,2.68c-0.75,0.49-1.38,1.18-1.81,2.04
			c-0.64,1.28-0.72,2.69-0.32,3.96c-0.89-0.14-1.62-0.75-1.94-1.57c0.18-0.16,0.29-0.4,0.29-0.66c0-0.49-0.4-0.89-0.89-0.89
			c-0.49,0-0.89,0.4-0.89,0.89c0,0.26,0.11,0.49,0.29,0.66c-0.36,0.93-1.27,1.6-2.33,1.6c-1.06,0-1.97-0.66-2.33-1.6
			c0.18-0.16,0.29-0.4,0.29-0.66c0-0.49-0.4-0.89-0.89-0.89c-0.49,0-0.89,0.4-0.89,0.89c0,0.26,0.11,0.49,0.29,0.66
			c-0.36,0.93-1.27,1.61-2.33,1.6c-0.12,0-0.24-0.01-0.35-0.03C6.81,15.9,6.87,14.81,7.29,13.75 M23.16,31.32l-5.26,5.24l-1.2-1.21
			c-2.05-2.05-2.61-4.57-2.81-7.71c-0.09-1.46-0.14-3.05-0.14-4.85v-3.11h5.52h0.01v3.11C19.28,26.06,20.48,28.67,23.16,31.32
			 M11.18,34.85V23.7H4.81l1.98-4.01h5.88v3.11c0,0.92,0.01,2.86,0.14,4.92c0.13,2.03,0.42,3.96,1.23,5.7L11.18,34.85z M10.1,35.39
			l-3.12,1.56c0.08-1.72,0.11-4.25-0.24-6.2c-0.4-2.25-1.37-4.65-1.95-5.98h5.31V35.39z M3.8,14.94l1.88,4.55l-2.35,4.75
			c0,0,1.77,3.55,2.34,6.71c0.55,3.06,0.11,7.82,0.11,7.82l8.77-4.41c0.38,0.62,0.83,1.21,1.39,1.76c1.48,1.48,1.97,1.97,1.97,1.97
			l6.81-6.8l-0.45-0.42c-2.74-2.57-3.91-4.98-3.91-8.08v-3.32l1.87-4.53c0.34-0.13,0.58-0.45,0.58-0.84c0-0.49-0.4-0.89-0.89-0.89
			s-0.89,0.4-0.89,0.89c0,0.22,0.08,0.42,0.21,0.58c-0.27,0.77-0.9,1.37-1.7,1.59c-0.41-1.09-0.38-2.33,0.18-3.45
			c0.51-1,1.35-1.73,2.33-2.09c-0.65-0.82-1-1.87-0.91-3c0.09-1.12,0.61-2.11,1.37-2.81c-0.49-0.11-2.06-0.35-3.76,0.64
			c-0.93-0.71-1.53-1.82-1.53-3.07c0-0.28,0.03-0.56,0.09-0.82c-0.42,0.17-0.88,0.27-1.36,0.27c-1.38,0-2.58-0.79-3.18-1.94
			c-0.54,0.85-1.49,1.42-2.57,1.42c-1.07,0-2.01-0.55-2.55-1.39c0.23,2.52-0.53,5.49-2.68,7.06l0.59,0.77
			C5.91,7.6,6.26,7.3,6.57,6.99C6.7,6.85,6.83,6.77,7.02,6.77c0.27,0.01,0.5,0.22,0.5,0.51c0,0.13-0.05,0.22-0.1,0.32
			C7.27,7.9,7.19,8.24,7.19,8.59c0,0.34,0.08,0.67,0.21,0.96l0.88-0.41c-0.41-0.88,0.29-1.71,1.4-2.53c0.8-0.59,1.64-1.15,2.25-1.15
			c0.68-0.01,1.24,0.56,1.24,1.24c0,0.77-0.76,1.38-1.35,1.75c-2.19,1.39-4.41,2.39-5.43,4.83c-0.43,1.02-0.57,2.07-0.61,2.67
			c-0.56-0.39-0.89-0.94-1-1.26c0.13-0.16,0.21-0.36,0.21-0.58c0-0.49-0.4-0.89-0.89-0.89s-0.89,0.4-0.89,0.89
			C3.22,14.49,3.46,14.82,3.8,14.94"/>
		<path d="M0.5,50.04l6.01,6.01c2.5,2.5,5.57,4.12,8.81,4.84L2.49,48.05L0.5,50.04z"/>
		<path d="M9.66,3.24c-0.32,0-0.58,0.26-0.58,0.58c0,0.32,0.26,0.58,0.58,0.58c0.32,0,0.58-0.26,0.58-0.58
			C10.23,3.49,9.97,3.24,9.66,3.24"/>
		<path d="M39.26,28c2.24,0,3.68-0.62,5.02-1.84v-4.35h-5.3v1.64h3.59v1.9c-0.85,0.67-1.93,0.99-3.31,0.99
			c-2.73,0-4.71-1.99-4.71-4.74c0-2.7,1.93-4.74,4.5-4.74c2.18,0,3.03,0.98,3.69,1.71l1.26-1.18c-1.12-1.31-2.59-2.19-4.92-2.19
			c-3.56,0-6.35,2.81-6.35,6.4C32.74,25.25,35.54,28,39.26,28"/>
	</g>
	<path d="M97.99,23.67l2.01-4.91l2.01,4.91H97.99z M99.72,15.17l-5.25,12.69h1.82l1.03-2.55h5.35l1.03,2.55h1.82l-5.25-12.69H99.72z
		"/>
	<path d="M135.2,18.75L135.2,18.75l2.01,4.91h-4.02L135.2,18.75z M131.49,27.86l1.03-2.55h5.35l1.03,2.55h1.82l-5.25-12.69h-0.56
		l-5.25,12.69H131.49z"/>
	<polygon points="61.2,18.96 69.17,28.02 69.73,28.02 69.73,15.33 68.03,15.33 68.03,24.23 60.06,15.17 59.51,15.17 59.51,27.86 
		61.2,27.86 	"/>
	<polygon points="50.2,23.44 55.59,23.44 55.59,21.81 50.2,21.81 50.2,16.98 56.23,16.98 56.23,15.33 48.43,15.33 48.43,27.86 
		56.48,27.86 56.48,26.22 50.2,26.22 	"/>
	<polygon points="125.02,27.86 126.78,27.86 126.78,16.98 130.46,16.98 130.46,15.33 121.33,15.33 121.33,16.98 125.02,16.98 	"/>
	<rect x="117.23" y="15.33" width="1.78" height="12.53"/>
	<polygon points="81.28,26.22 74.99,26.22 74.99,23.44 80.38,23.44 80.38,21.81 74.99,21.81 74.99,16.98 81.03,16.98 81.03,15.33 
		73.23,15.33 73.23,27.86 81.28,27.86 	"/>
	<polygon points="114.92,26.22 109.39,26.22 109.39,15.33 107.63,15.33 107.63,27.86 114.92,27.86 	"/>
	<polygon points="139.92,15.33 139.92,16.98 143.61,16.98 143.61,27.86 145.38,27.86 145.38,16.98 149.19,16.98 149.19,15.33 	"/>
	<g>
		<defs>
			<rect id="SVGID_1_" x="1.58" width="147.61" height="61.33"/>
		</defs>
		<clipPath id="SVGID_00000062912234029102312180000013155407453739676094_">
			<use xlink:href="#SVGID_1_"  style="overflow:visible;"/>
		</clipPath>
		<path style="clip-path:url(#SVGID_00000062912234029102312180000013155407453739676094_);" d="M87.54,22.77h-1.48v-5.8h1.48
			c2.34,0,3.48,0.95,3.48,2.91C91.03,21.83,89.89,22.77,87.54,22.77 M90.23,23.9c1.71-0.74,2.61-2.12,2.61-4.02
			c0-2.85-1.96-4.55-5.23-4.55H84.3v12.53h1.77V24.4h1.55c0.32,0,0.58-0.01,0.83-0.04l2.35,3.51h2.14L90.23,23.9z"/>
	</g>
	<polygon points="131.69,42.37 123.72,33.31 123.16,33.31 123.16,46 124.86,46 124.86,37.1 132.82,46.16 133.38,46.16 133.38,33.47 
		131.69,33.47 	"/>
	<g>
		<defs>
			<rect id="SVGID_00000006674157385022815800000015732891533451100035_" x="1.58" width="147.61" height="61.33"/>
		</defs>
		<clipPath id="SVGID_00000132809549505371434410000015308510669015146407_">
			<use xlink:href="#SVGID_00000006674157385022815800000015732891533451100035_"  style="overflow:visible;"/>
		</clipPath>
		<path style="clip-path:url(#SVGID_00000132809549505371434410000015308510669015146407_);" d="M98.16,44.48
			c-2.66,0-4.58-1.99-4.58-4.74c0-2.7,1.93-4.74,4.5-4.74c1.85,0,2.95,0.84,3.75,1.94l1.38-1c-1.06-1.5-2.7-2.6-5.12-2.6
			c-3.61,0-6.33,2.75-6.33,6.4c0,3.66,2.72,6.4,6.37,6.4c2.56,0,4.24-1.1,5.42-2.76l-1.41-0.99
			C101.26,43.62,100.01,44.48,98.16,44.48"/>
	</g>
	<path d="M48.67,41.81l2.01-4.91l2.01,4.91H48.67z M50.4,33.31L45.15,46h1.82L48,43.45h5.35L54.38,46h1.82l-5.25-12.69H50.4z"/>
	<polygon points="44.13,33.47 40.51,42.48 36.89,33.47 34.98,33.47 40.23,46.16 40.79,46.16 46.04,33.47 	"/>
	<path d="M113.52,41.81l2.01-4.91l2.01,4.91H113.52z M115.25,33.31L110.01,46h1.82l1.03-2.55h5.35l1.03,2.55h1.82l-5.25-12.69
		H115.25z"/>
	<path d="M139,41.81l2.01-4.91l2.01,4.91H139z M140.73,33.31L135.49,46h1.82l1.03-2.55h5.35l1.03,2.55h1.82l-5.25-12.69H140.73z"/>
	<polygon points="87.51,42.37 79.54,33.31 78.98,33.31 78.98,46 80.68,46 80.68,37.1 88.65,46.16 89.2,46.16 89.2,33.47 
		87.51,33.47 	"/>
	<rect x="106.12" y="33.47" width="1.78" height="12.53"/>
	<polygon points="69.67,41.58 75.06,41.58 75.06,39.95 69.67,39.95 69.67,35.12 75.71,35.12 75.71,33.48 67.91,33.48 67.91,46 
		75.95,46 75.95,44.36 69.67,44.36 	"/>
	<polygon points="60.07,33.47 58.3,33.47 58.3,46 65.6,46 65.6,44.36 60.07,44.36 	"/>
</g>
</svg>
