<?xml version="1.0" encoding="utf-8"?>
<!-- Generator: Adobe Illustrator 27.5.0, SVG Export Plug-In . SVG Version: 6.00 Build 0)  -->
<svg version="1.1" id="Capa_1" xmlns="http://www.w3.org/2000/svg" xmlns:xlink="http://www.w3.org/1999/xlink" x="0px" y="0px"
	 viewBox="0 0 112.9 61.33" style="enable-background:new 0 0 112.9 61.33;" xml:space="preserve">
<g fill="#18191a">
	<polygon points="88.04,14.53 88.04,34.17 107.34,34.17 111.33,28.81 94.29,28.81 94.29,27.03 106.6,27.03 110.16,21.67 
		94.29,21.67 94.29,19.89 107.25,19.89 111.27,14.53 	"/>
	<g>
		<defs>
			<rect id="SVGID_00000082358138628072618130000016593104592853120700_" x="1.04" y="0.62" width="110.28" height="60.08"/>
		</defs>
		<clipPath id="SVGID_00000024685503727881344930000014782521803754750098_">
			<use xlink:href="#SVGID_00000082358138628072618130000016593104592853120700_"  style="overflow:visible;"/>
		</clipPath>
		<path style="clip-path:url(#SVGID_00000024685503727881344930000014782521803754750098_);" d="M39.27,34.17l3.72-5.36h5h1.86
			c0.64,0,1.21,0.18,1.68,0.22c-0.28-0.36-0.6-0.73-0.97-1.28c-0.36-0.54-0.72-1.01-1.05-1.49L45.93,21L36.6,34.17h-7.29
			l12.76-17.94c0.42-0.58,0.94-1.07,1.57-1.53c0.64-0.45,1.44-0.67,2.41-0.67c0.94,0,1.71,0.22,2.34,0.64
			c0.63,0.43,1.15,0.92,1.59,1.56l12.43,17.94H39.27z"/>
		<path style="clip-path:url(#SVGID_00000024685503727881344930000014782521803754750098_);" d="M85.21,28.81l-3.96,5.36h-10
			c-1.72,0-3.32-0.22-4.79-0.74c-1.46-0.52-2.73-1.21-3.79-2.11c-1.06-0.9-1.9-1.96-2.5-3.2c-0.61-1.24-0.91-2.58-0.91-4.03
			c0-1.44,0.3-2.76,0.91-3.96c0.6-1.2,1.44-2.23,2.5-3.09c1.06-0.86,2.33-1.44,3.79-1.9c1.47-0.47,3.07-0.62,4.79-0.62h13.95
			l-3.96,4.46h-10c-0.83,0-1.6,0.39-2.32,0.63c-0.71,0.24-1.32,0.71-1.84,1.13c-0.52,0.43-0.93,1-1.22,1.6
			c-0.3,0.6-0.45,1.29-0.45,2c0,0.72,0.15,1.38,0.43,1.96c0.29,0.59,0.7,1.09,1.23,1.51c0.53,0.42,1.14,0.59,1.85,0.81
			c0.72,0.23,1.49,0.19,2.32,0.19H85.21z"/>
		<path style="clip-path:url(#SVGID_00000024685503727881344930000014782521803754750098_);" d="M39.65,0.95
			C39.65,0.95,39.65,0.95,39.65,0.95C39.65,0.95,39.65,0.95,39.65,0.95 M23.89,32.11c0,0.03,0.01,0.06,0.01,0.09
			c0,0.01,0,0.02,0,0.04c-0.01-0.07-0.02-0.15-0.02-0.22C23.88,32.05,23.89,32.08,23.89,32.11 M17.37,19.52L17.37,19.52
			c0,0,0-0.01,0-0.01C17.37,19.51,17.37,19.51,17.37,19.52L17.37,19.52z M17.27,20.37L17.27,20.37
			C17.27,20.37,17.27,20.37,17.27,20.37C17.27,20.37,17.28,20.37,17.27,20.37 M41.56,3.17c-0.01-0.02-0.02-0.04-0.03-0.06
			C41.53,3.14,41.54,3.15,41.56,3.17 M45.15,0.8c0,0-0.01,0-0.02,0l-0.21-0.01l-0.31-0.01L44.3,0.77l-0.31-0.01l-0.31-0.01l-0.05,0
			c-0.12,0-0.23-0.01-0.35-0.01h-0.02l-0.07,0c-0.16-0.01-0.33-0.01-0.49-0.01l-0.06,0l-0.05,0c-0.19-0.01-0.39-0.01-0.58-0.02
			l-0.63-0.02l-0.25-0.01c-0.03,0-0.07,0-0.1,0l-0.28-0.01l-0.31-0.01l-0.08,0c-0.17-0.01-0.34-0.01-0.52-0.02h-0.03l-0.31-0.01
			l-0.31-0.01l-0.3-0.01h0c-0.03,0-0.05,0-0.08,0c-0.03,0-0.06,0.01-0.09,0.02c0,0-0.01,0-0.01,0l-0.38,0.11
			c-0.13,0.04-0.23,0.12-0.3,0.24l-0.81,1.34l-0.82,1.35l-0.53,0.88c-0.14,0.23-0.27,0.45-0.41,0.68l-0.69,1.14l-0.82,1.35
			l-0.82,1.35l-0.82,1.35l-0.82,1.35l-0.82,1.36l-0.82,1.36l-0.82,1.36l-0.82,1.36l-0.82,1.36l-0.83,1.36l-0.82,1.37l-0.82,1.37
			l-0.83,1.37l-0.83,1.37l-0.83,1.37l-0.16,0.26c-0.7-1.2-1.43-2.42-2.19-3.51l-0.43-0.69l-0.25-0.41L19.14,22l-0.27-0.44
			l-0.27-0.44l-0.27-0.44l-0.27-0.43l-0.27-0.43l-0.26-0.43l-0.26-0.41c0,0,0,0,0,0c-0.01-0.01-0.02-0.02-0.02-0.03
			c-0.01-0.01-0.02-0.02-0.03-0.03c-0.01-0.01-0.02-0.02-0.03-0.03c-0.01-0.01-0.02-0.02-0.03-0.02c-0.02-0.01-0.02-0.02-0.04-0.02
			c-0.01-0.01-0.02-0.01-0.04-0.02c-0.01-0.01-0.03-0.01-0.04-0.01c-0.02,0-0.04,0-0.05-0.01c-1.03-0.03-2.05-0.06-3.08-0.08
			l-0.03,0h-0.01c-0.27-0.01-0.55-0.02-0.82-0.02l-0.13,0l-0.08,0c-0.25-0.01-0.5-0.01-0.76-0.02l-0.28-0.01l-0.22-0.01
			c-0.11,0-0.22-0.01-0.33-0.01l-0.09,0l-0.32-0.01l-0.32-0.01c0.01,0,0.04,0.01,0.06,0.01c-0.1-0.01-0.19-0.01-0.26,0.01
			l-0.38,0.11c-0.19,0.05-0.2,0.21-0.03,0.45l0.01,0.02l0.4,0.62l0.4,0.63l0.4,0.62l0.3,0.46c0.07,0.11,0.14,0.21,0.21,0.32
			l0.32,0.5l0.41,0.65l0.84,1.31l0.43,0.66l0.43,0.67l0.43,0.67l0.39,0.61c0.33,0.52,0.66,1.03,1,1.55l0.35,0.55l0.44,0.68
			l0.21,0.32c0.52,0.81,1.03,1.61,1.55,2.42l0,0h0c0.01,0.02,0.03,0.04,0.04,0.06c0.02,0.04,0.07,0.1,0.16,0.23
			c0.02,0.02,0.03,0.05,0.05,0.07c0.62,1,2.05,3.3,3.35,3.3c1.3,0,2.12-0.95,2.12-0.95s2.21-2.93,2.14-2.81
			c0,0,6.41-10.68,7.56-12.6l0.05-0.08l0.12-0.21c1.75-2.92,3.5-5.84,5.25-8.76l0.3-0.49l0.27-0.45c0.82-1.36,1.63-2.72,2.45-4.08
			l0.11-0.17l0.13-0.22c0.1-0.17,0.2-0.34,0.3-0.5c0.05,0,0.09,0,0.13,0c0-0.08,0.01-0.17,0.02-0.25c0.37-0.61,0.74-1.23,1.1-1.84
			l0.19-0.31l0.93-1.55c0-0.01,0.01-0.02,0.01-0.02c0-0.01,0-0.01,0-0.02C45.16,0.81,45.15,0.8,45.15,0.8"/>
		<path style="clip-path:url(#SVGID_00000024685503727881344930000014782521803754750098_);" d="M1.84,15.35v19.28H8V15.35
			c-0.89,0.56-1.95,0.88-3.08,0.88C3.79,16.23,2.74,15.91,1.84,15.35"/>
		<path style="clip-path:url(#SVGID_00000024685503727881344930000014782521803754750098_);" d="M1.04,10.29
			c0-2.14,1.74-3.88,3.88-3.88c2.15,0,3.89,1.74,3.89,3.88c0,2.14-1.74,3.89-3.89,3.89C2.78,14.18,1.04,12.43,1.04,10.29"/>
	</g>
	<rect x="1.62" y="41.68" width="0.99" height="7.34"/>
	<g>
		<defs>
			<rect id="SVGID_00000157269150633607140890000008795384173099023000_" x="1.04" y="0.62" width="110.28" height="60.08"/>
		</defs>
		<clipPath id="SVGID_00000082341522111723633100000010566702032558908591_">
			<use xlink:href="#SVGID_00000157269150633607140890000008795384173099023000_"  style="overflow:visible;"/>
		</clipPath>
		<path style="clip-path:url(#SVGID_00000082341522111723633100000010566702032558908591_);" d="M6.24,49.02
			c-0.41-1.21-0.82-2.42-1.21-3.64c-0.1-0.3-0.2-0.6-0.28-0.91c-0.09-0.36-0.14-0.73-0.25-1.1c0.06,0.36,0.07,0.74,0.09,1.11
			c0.09,1.51,0.1,3.03,0.12,4.54H3.74v-7.34h0.92c0.63,1.85,1.29,3.67,1.74,5.58c-0.12-0.92-0.23-1.86-0.23-2.79v-2.79h0.99v7.34
			H6.24z"/>
		<path style="clip-path:url(#SVGID_00000082341522111723633100000010566702032558908591_);" d="M9.37,49.12
			c-0.4,0-0.75-0.1-1.07-0.35v-0.98c0.3,0.22,0.58,0.39,0.96,0.39c0.58,0,0.87-0.46,0.87-1c0-1.52-2.06-1.75-2.06-3.71
			c0-1.05,0.54-1.87,1.66-1.87c0.4,0,0.65,0.05,1.01,0.25l-0.01,0.96c-0.25-0.18-0.5-0.33-0.81-0.33c-0.56,0-0.89,0.46-0.89,0.98
			c0,1.36,2.05,1.7,2.05,3.72C11.08,48.2,10.48,49.12,9.37,49.12"/>
	</g>
	<polygon points="13.57,42.55 13.57,49.02 12.6,49.02 12.6,42.55 11.46,42.55 11.46,41.68 14.69,41.68 14.69,42.55 	"/>
	<rect x="15.23" y="41.68" width="0.99" height="7.34"/>
	<polygon points="18.88,42.55 18.88,49.02 17.91,49.02 17.91,42.55 16.76,42.55 16.76,41.68 19.99,41.68 19.99,42.55 	"/>
	<g>
		<defs>
			<rect id="SVGID_00000000934980405631835320000002063447839353213589_" x="1.04" y="0.62" width="110.28" height="60.08"/>
		</defs>
		<clipPath id="SVGID_00000179646199256293424790000007700539909703629483_">
			<use xlink:href="#SVGID_00000000934980405631835320000002063447839353213589_"  style="overflow:visible;"/>
		</clipPath>
		<path style="clip-path:url(#SVGID_00000179646199256293424790000007700539909703629483_);" d="M23.91,47.07
			c0,1.27-0.28,2.05-1.7,2.05c-1.34,0-1.67-0.84-1.67-2.02v-5.43h0.97v5.39c0,0.54,0.04,1.11,0.74,1.11c0.73,0,0.7-0.56,0.7-1.11
			v-5.39h0.97V47.07z"/>
	</g>
	<polygon points="26.56,42.55 26.56,49.02 25.59,49.02 25.59,42.55 24.45,42.55 24.45,41.68 27.67,41.68 27.67,42.55 	"/>
	<g>
		<defs>
			<rect id="SVGID_00000169531957964218966920000014604301152343724725_" x="1.04" y="0.62" width="110.28" height="60.08"/>
		</defs>
		<clipPath id="SVGID_00000003789655643238787170000005888869522601143942_">
			<use xlink:href="#SVGID_00000169531957964218966920000014604301152343724725_"  style="overflow:visible;"/>
		</clipPath>
		<path style="clip-path:url(#SVGID_00000003789655643238787170000005888869522601143942_);" d="M30.7,43.18
			c-0.08-0.39-0.29-0.69-0.73-0.69c-0.26,0-0.43,0.1-0.57,0.31c-0.3,0.42-0.3,1.62-0.3,2.13c0,0.77-0.02,1.57,0.1,2.32
			c0.08,0.45,0.23,0.96,0.78,0.96c0.35,0,0.56-0.21,0.68-0.53c0.2-0.56,0.19-1.82,0.19-2.46C30.86,44.54,30.86,43.84,30.7,43.18
			 M31.78,47.22c-0.18,1.08-0.56,1.9-1.79,1.9c-0.63,0-1.16-0.27-1.48-0.83c-0.41-0.76-0.45-2.25-0.45-3.12
			c0-0.86,0.02-1.92,0.4-2.7c0.31-0.64,0.8-0.89,1.5-0.89c0.62,0,1.12,0.25,1.44,0.78c0.45,0.78,0.48,2.22,0.48,3.11
			C31.89,46.08,31.87,46.64,31.78,47.22"/>
		<path style="clip-path:url(#SVGID_00000003789655643238787170000005888869522601143942_);" d="M37.24,49.02h-0.78l-1.42-7.34h0.98
			c0.23,1.42,0.46,2.84,0.67,4.27c0.07,0.42,0.13,0.83,0.18,1.25c0.02-0.39,0.1-0.79,0.16-1.19c0.09-0.54,0.16-1.09,0.26-1.63
			l0.47-2.71h0.93L37.24,49.02z"/>
		<path style="clip-path:url(#SVGID_00000003789655643238787170000005888869522601143942_);" d="M40.46,43.11
			c-0.12,1.25-0.36,2.49-0.59,3.72h1.16C40.82,45.6,40.6,44.36,40.46,43.11 M41.45,49.02l-0.27-1.43h-1.46l-0.28,1.43h-0.96
			l1.61-7.34h0.77l1.56,7.34H41.45z"/>
	</g>
	<polygon points="43.01,49.02 43.01,41.68 44,41.68 44,48.18 45.62,48.18 45.62,49.02 	"/>
	<polygon points="46.24,49.02 46.24,41.68 48.87,41.68 48.87,42.52 47.22,42.52 47.22,44.85 48.68,44.85 48.68,45.69 47.22,45.69 
		47.22,48.18 48.87,48.18 48.87,49.02 	"/>
	<g>
		<defs>
			<rect id="SVGID_00000103985477151762029670000010227888541026772667_" x="1.04" y="0.62" width="110.28" height="60.08"/>
		</defs>
		<clipPath id="SVGID_00000045616203457425915160000013670878408346811282_">
			<use xlink:href="#SVGID_00000103985477151762029670000010227888541026772667_"  style="overflow:visible;"/>
		</clipPath>
		<path style="clip-path:url(#SVGID_00000045616203457425915160000013670878408346811282_);" d="M52.27,49.02
			c-0.41-1.21-0.82-2.42-1.21-3.64c-0.1-0.3-0.2-0.6-0.28-0.91c-0.09-0.36-0.14-0.73-0.25-1.1c0.06,0.36,0.07,0.74,0.09,1.11
			c0.09,1.51,0.1,3.03,0.12,4.54h-0.98v-7.34h0.92c0.63,1.85,1.29,3.67,1.74,5.58c-0.12-0.92-0.23-1.86-0.23-2.79v-2.79h0.99v7.34
			H52.27z"/>
		<path style="clip-path:url(#SVGID_00000045616203457425915160000013670878408346811282_);" d="M56.38,49.12
			c-1.96,0-2.23-2.13-2.23-3.64c0-1.51,0.19-3.9,2.2-3.9c0.34,0,0.53,0.05,0.82,0.22v0.89c-0.2-0.11-0.4-0.18-0.63-0.18
			c-1.34,0-1.34,1.98-1.34,2.92c0,0.96,0.07,2.73,1.4,2.73c0.22,0,0.38-0.04,0.58-0.14v0.9C56.88,49.09,56.71,49.12,56.38,49.12"/>
	</g>
	<rect x="58" y="41.68" width="0.99" height="7.34"/>
	<g>
		<defs>
			<rect id="SVGID_00000093871222884693018540000006780408737053324177_" x="1.04" y="0.62" width="110.28" height="60.08"/>
		</defs>
		<clipPath id="SVGID_00000021827892500892918120000017391415816926085549_">
			<use xlink:href="#SVGID_00000093871222884693018540000006780408737053324177_"  style="overflow:visible;"/>
		</clipPath>
		<path style="clip-path:url(#SVGID_00000021827892500892918120000017391415816926085549_);" d="M61.55,43.11
			c-0.12,1.25-0.36,2.49-0.59,3.72h1.17C61.9,45.6,61.68,44.36,61.55,43.11 M62.54,49.02l-0.28-1.43h-1.46l-0.28,1.43h-0.96
			l1.6-7.34h0.78l1.56,7.34H62.54z"/>
		<path style="clip-path:url(#SVGID_00000021827892500892918120000017391415816926085549_);" d="M66.59,49.02
			c-0.41-1.21-0.83-2.42-1.21-3.64c-0.1-0.3-0.2-0.6-0.28-0.91c-0.09-0.36-0.15-0.73-0.24-1.1c0.06,0.36,0.07,0.74,0.09,1.11
			c0.09,1.51,0.1,3.03,0.12,4.54h-0.98v-7.34h0.92c0.63,1.85,1.29,3.67,1.74,5.58c-0.12-0.92-0.23-1.86-0.23-2.79v-2.79h0.99v7.34
			H66.59z"/>
		<path style="clip-path:url(#SVGID_00000021827892500892918120000017391415816926085549_);" d="M71.12,43.18
			c-0.09-0.39-0.28-0.69-0.73-0.69c-0.26,0-0.43,0.1-0.57,0.31c-0.3,0.42-0.3,1.62-0.3,2.13c0,0.77-0.02,1.57,0.1,2.32
			c0.08,0.45,0.23,0.96,0.78,0.96c0.35,0,0.56-0.21,0.68-0.53c0.2-0.56,0.19-1.82,0.19-2.46C71.28,44.54,71.28,43.84,71.12,43.18
			 M72.21,47.22c-0.18,1.08-0.56,1.9-1.79,1.9c-0.63,0-1.16-0.27-1.47-0.83c-0.42-0.76-0.45-2.25-0.45-3.12
			c0-0.86,0.02-1.92,0.4-2.7c0.31-0.64,0.8-0.89,1.5-0.89c0.62,0,1.12,0.25,1.44,0.78c0.45,0.78,0.48,2.22,0.48,3.11
			C72.32,46.08,72.29,46.64,72.21,47.22"/>
		<path style="clip-path:url(#SVGID_00000021827892500892918120000017391415816926085549_);" d="M78.49,44.06
			c-0.11-0.84-0.33-1.54-1.33-1.54h-0.13v5.65h0.05c0.93,0,1.25-0.43,1.4-1.31c0.06-0.45,0.08-0.91,0.08-1.37
			C78.56,45.02,78.54,44.53,78.49,44.06 M78.88,48.44c-0.51,0.55-1.33,0.58-2.03,0.58h-0.8v-7.34h1.22c0.72,0,1.2,0.1,1.66,0.67
			c0.64,0.78,0.66,2.14,0.66,3.11C79.59,46.38,79.56,47.72,78.88,48.44"/>
	</g>
	<polygon points="80.57,49.02 80.57,41.68 83.21,41.68 83.21,42.52 81.56,42.52 81.56,44.85 83.02,44.85 83.02,45.69 81.56,45.69 
		81.56,48.18 83.21,48.18 83.21,49.02 	"/>
	<g>
		<defs>
			<rect id="SVGID_00000091002636466419990720000001097949819947867013_" x="1.04" y="0.62" width="110.28" height="60.08"/>
		</defs>
		<clipPath id="SVGID_00000029767967076574577900000004975004355733212037_">
			<use xlink:href="#SVGID_00000091002636466419990720000001097949819947867013_"  style="overflow:visible;"/>
		</clipPath>
		<path style="clip-path:url(#SVGID_00000029767967076574577900000004975004355733212037_);" d="M3.69,60.71
			c-1.96,0-2.22-2.13-2.22-3.64c0-1.51,0.19-3.9,2.2-3.9c0.34,0,0.53,0.06,0.82,0.22v0.89c-0.2-0.11-0.41-0.19-0.64-0.19
			c-1.33,0-1.34,1.98-1.34,2.91c0,0.96,0.08,2.73,1.4,2.73c0.22,0,0.38-0.05,0.58-0.14v0.91C4.2,60.68,4.04,60.71,3.69,60.71"/>
		<path style="clip-path:url(#SVGID_00000029767967076574577900000004975004355733212037_);" d="M7.91,54.77
			c-0.09-0.4-0.29-0.69-0.73-0.69c-0.27,0-0.43,0.1-0.58,0.31c-0.3,0.42-0.3,1.61-0.3,2.13c0,0.77-0.02,1.56,0.1,2.32
			c0.08,0.45,0.23,0.96,0.78,0.96c0.35,0,0.56-0.21,0.68-0.53c0.2-0.56,0.19-1.82,0.19-2.46C8.07,56.13,8.07,55.43,7.91,54.77
			 M8.99,58.81c-0.17,1.08-0.56,1.9-1.78,1.9c-0.63,0-1.17-0.26-1.47-0.82c-0.42-0.76-0.45-2.24-0.45-3.12
			c0-0.86,0.02-1.91,0.4-2.69c0.31-0.64,0.8-0.89,1.51-0.89c0.62,0,1.12,0.24,1.44,0.78c0.45,0.78,0.47,2.21,0.47,3.11
			C9.1,57.66,9.08,58.24,8.99,58.81"/>
		<path style="clip-path:url(#SVGID_00000029767967076574577900000004975004355733212037_);" d="M14.03,60.61
			c-0.07-1.01-0.14-2.04-0.18-3.05c-0.01-0.33-0.04-0.65-0.05-0.98c-0.01-0.34,0.02-0.68-0.03-1.02c-0.27,1.69-0.62,3.37-0.94,5.05
			h-0.66c-0.35-1.67-0.76-3.34-0.97-5.05l-0.28,5.05H9.99l0.61-7.34h0.84l0.64,2.99c0.03,0.18,0.09,0.35,0.12,0.53
			c0.11,0.59,0.2,1.18,0.28,1.78c0.02-0.35,0.11-0.69,0.16-1.03c0.04-0.27,0.07-0.54,0.12-0.8c0.03-0.18,0.08-0.35,0.11-0.52
			l0.58-2.94h0.86l0.68,7.34H14.03z"/>
		<path style="clip-path:url(#SVGID_00000029767967076574577900000004975004355733212037_);" d="M17.08,54.11h-0.14v2.4h0.09
			c0.8,0,0.99-0.44,0.99-1.16C18.03,54.68,17.86,54.11,17.08,54.11 M18.42,57.03c-0.42,0.31-0.96,0.33-1.47,0.33v3.26h-0.99v-7.34
			h1.3c0.41,0,0.72,0.01,1.08,0.23c0.61,0.36,0.72,1.17,0.72,1.81C19.06,55.93,18.93,56.63,18.42,57.03"/>
	</g>
	<polygon points="19.99,53.27 19.99,60.61 22.62,60.61 22.62,59.77 20.98,59.77 20.98,57.28 22.43,57.28 22.43,56.44 20.98,56.44 
		20.98,54.11 22.62,54.11 22.62,53.27 	"/>
	<polygon points="23.11,53.27 23.11,54.14 24.25,54.14 24.25,60.61 25.22,60.61 25.22,54.14 26.33,54.14 26.33,53.27 	"/>
	<rect x="27.03" y="53.27" width="0.99" height="7.34"/>
	<polygon points="28.74,53.27 28.74,54.14 29.89,54.14 29.89,60.61 30.85,60.61 30.85,54.14 31.97,54.14 31.97,53.27 	"/>
	<rect x="32.67" y="53.27" width="0.99" height="7.34"/>
	<g>
		<defs>
			<rect id="SVGID_00000080207656562453139060000000233326041682817435_" x="1.04" y="0.62" width="110.28" height="60.08"/>
		</defs>
		<clipPath id="SVGID_00000069391568434601860100000004698315318712539540_">
			<use xlink:href="#SVGID_00000080207656562453139060000000233326041682817435_"  style="overflow:visible;"/>
		</clipPath>
		<path style="clip-path:url(#SVGID_00000069391568434601860100000004698315318712539540_);" d="M36.58,60.61H35.8l-1.42-7.34h0.98
			c0.23,1.41,0.46,2.84,0.67,4.27c0.07,0.42,0.13,0.84,0.18,1.25c0.02-0.4,0.1-0.79,0.16-1.19c0.09-0.53,0.15-1.09,0.25-1.63
			l0.47-2.71h0.92L36.58,60.61z"/>
	</g>
	<rect x="38.73" y="53.27" width="0.99" height="7.34"/>
	<g>
		<defs>
			<rect id="SVGID_00000098221568354811962540000002042850088129854090_" x="1.04" y="0.62" width="110.28" height="60.08"/>
		</defs>
		<clipPath id="SVGID_00000182520910856617892320000002446635273220293761_">
			<use xlink:href="#SVGID_00000098221568354811962540000002042850088129854090_"  style="overflow:visible;"/>
		</clipPath>
		<path style="clip-path:url(#SVGID_00000182520910856617892320000002446635273220293761_);" d="M43.46,55.65
			c-0.11-0.84-0.33-1.54-1.34-1.54h-0.12v5.64h0.05c0.94,0,1.25-0.43,1.4-1.31c0.06-0.45,0.07-0.91,0.07-1.36
			C43.53,56.61,43.52,56.12,43.46,55.65 M43.86,60.03c-0.51,0.55-1.33,0.58-2.04,0.58h-0.8v-7.34h1.22c0.72,0,1.2,0.1,1.66,0.67
			c0.64,0.78,0.66,2.13,0.66,3.11C44.56,57.97,44.53,59.31,43.86,60.03"/>
		<path style="clip-path:url(#SVGID_00000182520910856617892320000002446635273220293761_);" d="M47.06,54.7
			c-0.12,1.25-0.36,2.49-0.59,3.72h1.17C47.41,57.19,47.19,55.94,47.06,54.7 M48.05,60.61l-0.28-1.43h-1.46l-0.28,1.43h-0.96
			l1.6-7.34h0.78l1.56,7.34H48.05z"/>
		<path style="clip-path:url(#SVGID_00000182520910856617892320000002446635273220293761_);" d="M52.21,55.65
			c-0.11-0.84-0.33-1.54-1.33-1.54h-0.12v5.64h0.05c0.93,0,1.26-0.43,1.4-1.31c0.07-0.45,0.08-0.91,0.08-1.36
			C52.28,56.61,52.27,56.12,52.21,55.65 M52.61,60.03c-0.52,0.55-1.33,0.58-2.03,0.58h-0.81v-7.34h1.22c0.72,0,1.19,0.1,1.66,0.67
			c0.64,0.78,0.66,2.13,0.66,3.11C53.32,57.97,53.28,59.31,52.61,60.03"/>
	</g>
	<polygon points="57.38,53.27 57.38,60.61 60.01,60.61 60.01,59.77 58.37,59.77 58.37,57.28 59.82,57.28 59.82,56.44 58.37,56.44 
		58.37,54.11 60.01,54.11 60.01,53.27 	"/>
	<g>
		<defs>
			<rect id="SVGID_00000003090543510940554290000009372926915359939232_" x="1.04" y="0.62" width="110.28" height="60.08"/>
		</defs>
		<clipPath id="SVGID_00000011022666238724020590000004337115831668606345_">
			<use xlink:href="#SVGID_00000003090543510940554290000009372926915359939232_"  style="overflow:visible;"/>
		</clipPath>
		<path style="clip-path:url(#SVGID_00000011022666238724020590000004337115831668606345_);" d="M64.86,60.61
			c-0.06-1.01-0.14-2.04-0.19-3.05c-0.01-0.33-0.03-0.65-0.04-0.98c-0.01-0.34,0.02-0.68-0.03-1.02c-0.26,1.69-0.62,3.37-0.93,5.05
			H63c-0.35-1.67-0.76-3.34-0.97-5.05l-0.28,5.05h-0.93l0.6-7.34h0.85l0.64,2.99c0.03,0.18,0.09,0.35,0.13,0.53
			c0.1,0.59,0.2,1.18,0.27,1.78c0.02-0.35,0.11-0.69,0.16-1.03c0.05-0.27,0.08-0.54,0.13-0.8c0.03-0.18,0.07-0.35,0.11-0.52
			l0.57-2.94h0.86l0.68,7.34H64.86z"/>
		<path style="clip-path:url(#SVGID_00000011022666238724020590000004337115831668606345_);" d="M67.91,54.11h-0.14v2.4h0.09
			c0.81,0,1-0.44,1-1.16C68.86,54.68,68.68,54.11,67.91,54.11 M69.26,57.03c-0.42,0.31-0.97,0.33-1.48,0.33v3.26h-0.99v-7.34h1.3
			c0.4,0,0.71,0.01,1.07,0.23c0.61,0.36,0.73,1.17,0.73,1.81C69.9,55.93,69.76,56.63,69.26,57.03"/>
		<path style="clip-path:url(#SVGID_00000011022666238724020590000004337115831668606345_);" d="M72.67,54.39
			c-0.16-0.28-0.4-0.31-0.69-0.31h-0.16v2.45c0.25,0,0.51-0.01,0.71-0.18c0.28-0.23,0.35-0.65,0.35-0.99
			C72.87,55.07,72.82,54.66,72.67,54.39 M73.15,60.61l-1.34-3.59v3.59h-0.99v-7.34h1.31c0.4,0,0.74,0.02,1.07,0.28
			c0.49,0.37,0.63,1.05,0.63,1.64c0,0.72-0.2,1.66-1.01,1.86l1.36,3.57H73.15z"/>
	</g>
	<polygon points="75.09,53.27 75.09,60.61 77.72,60.61 77.72,59.77 76.08,59.77 76.08,57.28 77.53,57.28 77.53,56.44 76.08,56.44 
		76.08,54.11 77.72,54.11 77.72,53.27 	"/>
	<g>
		<defs>
			<rect id="SVGID_00000163056155094550740270000002447111478864978095_" x="1.04" y="0.62" width="110.28" height="60.08"/>
		</defs>
		<clipPath id="SVGID_00000106843186639480598370000009839639143256198016_">
			<use xlink:href="#SVGID_00000163056155094550740270000002447111478864978095_"  style="overflow:visible;"/>
		</clipPath>
		<path style="clip-path:url(#SVGID_00000106843186639480598370000009839639143256198016_);" d="M79.88,60.71
			c-0.41,0-0.75-0.1-1.08-0.35v-0.98c0.3,0.22,0.58,0.39,0.96,0.39c0.58,0,0.87-0.47,0.87-1.01c0-1.52-2.06-1.75-2.06-3.71
			c0-1.05,0.54-1.87,1.67-1.87c0.4,0,0.65,0.05,1.01,0.24l-0.01,0.97c-0.24-0.19-0.49-0.33-0.8-0.33c-0.56,0-0.89,0.45-0.89,0.98
			c0,1.35,2.05,1.7,2.05,3.72C81.59,59.78,80.98,60.71,79.88,60.71"/>
		<path style="clip-path:url(#SVGID_00000106843186639480598370000009839639143256198016_);" d="M84.01,54.7
			c-0.12,1.25-0.36,2.49-0.59,3.72h1.17C84.36,57.19,84.14,55.94,84.01,54.7 M85,60.61l-0.28-1.43h-1.46L83,60.61h-0.96l1.6-7.34
			h0.78l1.56,7.34H85z"/>
		<path style="clip-path:url(#SVGID_00000106843186639480598370000009839639143256198016_);" d="M88.57,54.39
			c-0.16-0.28-0.41-0.31-0.7-0.31h-0.16v2.45c0.25,0,0.52-0.01,0.72-0.18c0.28-0.23,0.34-0.65,0.34-0.99
			C88.77,55.07,88.72,54.66,88.57,54.39 M89.05,60.61l-1.34-3.59v3.59h-0.99v-7.34h1.31c0.4,0,0.74,0.02,1.07,0.28
			c0.5,0.37,0.63,1.05,0.63,1.64c0,0.72-0.2,1.66-1.01,1.86l1.35,3.57H89.05z"/>
	</g>
	<rect x="90.99" y="53.27" width="0.99" height="7.34"/>
	<g>
		<defs>
			<rect id="SVGID_00000054974186999787844150000011868509463593315731_" x="1.04" y="0.62" width="110.28" height="60.08"/>
		</defs>
		<clipPath id="SVGID_00000048497103781979236710000003107543531620109482_">
			<use xlink:href="#SVGID_00000054974186999787844150000011868509463593315731_"  style="overflow:visible;"/>
		</clipPath>
		<path style="clip-path:url(#SVGID_00000048497103781979236710000003107543531620109482_);" d="M94.7,54.7
			c-0.12,1.25-0.36,2.49-0.59,3.72h1.16C95.05,57.19,94.83,55.94,94.7,54.7 M95.69,60.61l-0.28-1.43h-1.45l-0.27,1.43h-0.96
			l1.6-7.34h0.78l1.56,7.34H95.69z"/>
	</g>
	<polygon points="97.41,53.27 97.41,60.61 100.02,60.61 100.02,59.77 98.4,59.77 98.4,53.27 	"/>
</g>
</svg>
