<?xml version="1.0" encoding="UTF-8" standalone="no"?>
<svg
   xmlns:dc="http://purl.org/dc/elements/1.1/"
   xmlns:cc="http://creativecommons.org/ns#"
   xmlns:rdf="http://www.w3.org/1999/02/22-rdf-syntax-ns#"
   xmlns:svg="http://www.w3.org/2000/svg"
   xmlns="http://www.w3.org/2000/svg"
   xmlns:sodipodi="http://sodipodi.sourceforge.net/DTD/sodipodi-0.dtd"
   xmlns:inkscape="http://www.inkscape.org/namespaces/inkscape"
   version="1.0"
   width="1000.000000pt"
   height="200.000000pt"
   viewBox="0 0 1000.000000 200.000000"
   preserveAspectRatio="xMidYMid meet"
   id="svg28"
   sodipodi:docname="logo_wakamiti_dark.svg"
   inkscape:version="0.92.5 (2060ec1f9f, 2020-04-08)">
  <metadata
     id="metadata34">
    <rdf:RDF>
      <cc:Work
         rdf:about="">
        <dc:format>image/svg+xml</dc:format>
        <dc:type
           rdf:resource="http://purl.org/dc/dcmitype/StillImage" />
        <dc:title></dc:title>
      </cc:Work>
    </rdf:RDF>
  </metadata>
  <defs
     id="defs32" />
  <sodipodi:namedview
     pagecolor="#ffffff"
     bordercolor="#666666"
     borderopacity="1"
     objecttolerance="10"
     gridtolerance="10"
     guidetolerance="10"
     inkscape:pageopacity="0"
     inkscape:pageshadow="2"
     inkscape:window-width="2520"
     inkscape:window-height="1412"
     id="namedview30"
     showgrid="false"
     inkscape:zoom="0.798"
     inkscape:cx="461.29473"
     inkscape:cy="409.76508"
     inkscape:window-x="1960"
     inkscape:window-y="0"
     inkscape:window-maximized="1"
     inkscape:current-layer="svg28" />
  <g
     transform="matrix(0.1,0,0,-0.1,4.6992482,188.7218)"
     id="g26"
     style="fill:#f2f2f2;stroke:none">
    <path
       d="M 560,918 V 435 l 36,60 c 20,33 83,141 140,240 56,99 109,188 116,197 11,16 30,-13 159,-240 l 146,-257 91,-3 c 51,-1 92,-1 92,1 0,2 -70,127 -155,276 -85,150 -155,276 -155,281 0,15 33,80 41,80 4,0 22,-26 40,-57 60,-107 321,-558 325,-562 2,-2 4,210 4,472 v 477 h -95 -95 l -2,-276 -3,-276 -83,146 c -46,80 -87,146 -90,146 -4,0 -21,-25 -38,-56 l -31,-56 -32,57 c -17,30 -36,53 -41,50 -5,-3 -44,-67 -87,-143 l -78,-137 -3,273 -2,272 H 660 560 Z"
       id="path2"
       style="fill:#f2f2f2"
       inkscape:connector-curvature="0" />
    <path
       d="m 2105,1115 -108,-286 39,-40 c 64,-67 187,-119 279,-119 51,0 128,21 183,49 49,25 132,97 132,115 0,6 -48,136 -106,288 l -107,278 h -102 -102 z m 280,-201 c 59,-154 63,-170 48,-181 -36,-27 -50,-16 -84,69 l -33,82 -17,-42 c -10,-23 -24,-60 -30,-82 -13,-43 -39,-53 -71,-27 -15,11 -13,22 23,117 84,222 91,241 96,237 2,-3 33,-80 68,-173 z m -61,-202 c -34,-5 -35,-2 -22,43 l 12,38 18,-39 17,-39 z"
       id="path4"
       style="fill:#f2f2f2"
       inkscape:connector-curvature="0" />
    <path
       d="M 3190,915 V 430 h 28 c 23,1 48,26 162,165 74,91 137,165 142,165 4,0 69,-74 145,-165 l 138,-164 118,-1 h 119 l -68,83 c -38,45 -89,107 -114,137 -25,30 -85,103 -132,161 l -87,106 200,241 199,242 H 3922 3804 L 3521,1060 C 3366,873 3234,718 3229,715 c -5,-4 -9,24 -9,67 v 73 l 218,256 c 119,140 223,263 231,272 12,15 11,17 -12,17 -21,0 -50,-28 -149,-142 l -123,-142 -5,90 c -6,103 -23,141 -80,173 -21,12 -54,21 -74,21 h -36 z m 84,431 c 57,-24 66,-47 66,-171 v -110 l -51,-60 c -28,-33 -55,-61 -60,-63 -10,-4 -12,401 -2,411 8,9 8,9 47,-7 z"
       id="path6"
       style="fill:#f2f2f2"
       inkscape:connector-curvature="0" />
    <path
       d="m 4716,1122 c -58,-152 -106,-282 -106,-288 0,-20 90,-95 143,-119 29,-13 80,-29 114,-35 111,-22 246,23 341,113 17,17 32,35 32,40 0,7 -141,385 -205,550 -6,15 -21,17 -110,17 h -102 z m 280,-210 c 35,-92 60,-170 56,-174 -4,-4 -19,-9 -33,-13 -25,-6 -28,-2 -59,75 -18,44 -35,78 -39,75 -3,-4 -17,-39 -31,-78 -24,-68 -27,-72 -54,-70 -16,1 -33,6 -37,10 -5,5 12,63 37,128 25,66 55,144 66,173 11,29 23,51 26,47 3,-3 34,-81 68,-173 z m -49,-164 c 13,-30 9,-38 -24,-38 -26,0 -27,5 -12,49 12,34 18,32 36,-11 z"
       id="path8"
       style="fill:#f2f2f2"
       inkscape:connector-curvature="0" />
    <path
       d="m 5909,1392 c -13,-2 19,-66 142,-282 l 158,-278 -22,-41 c -12,-23 -24,-41 -27,-41 -3,0 -52,84 -110,186 -58,102 -140,245 -182,318 l -78,131 V 908 430 h 95 95 l 2,276 3,276 85,-151 c 47,-83 88,-151 91,-151 4,0 19,25 35,55 16,30 31,55 34,55 3,0 18,-25 34,-55 16,-30 31,-55 35,-55 3,0 42,63 86,140 44,77 82,140 85,140 3,0 5,-26 6,-57 0,-32 1,-151 2,-265 l 2,-208 h 95 95 v 478 477 l -24,-40 c -13,-22 -78,-136 -145,-252 -68,-117 -126,-213 -129,-213 -4,0 -73,116 -153,258 l -146,257 h -74 c -41,0 -81,-1 -90,-3 z"
       id="path10"
       style="fill:#f2f2f2"
       inkscape:connector-curvature="0" />
    <path
       d="m 7762,1313 3,-86 110,-2 110,-1 3,-397 c 2,-388 3,-397 22,-397 19,0 20,9 22,397 l 3,396 h 40 40 l 3,-396 2,-397 h 95 95 l 2,396 3,396 133,-1 132,-2 v 91 90 h -410 -411 z"
       id="path12"
       style="fill:#f2f2f2"
       inkscape:connector-curvature="0" />
    <path
       d="M 7080,910 V 430 h 95 95 v 480 480 h -95 -95 z"
       id="path14"
       style="fill:#f2f2f2"
       inkscape:connector-curvature="0" />
    <path
       d="m 7342,913 c 3,-446 4,-478 21,-481 16,-3 17,25 17,477 0,475 0,481 -20,481 -20,0 -20,-5 -18,-477 z"
       id="path16"
       style="fill:#f2f2f2"
       inkscape:connector-curvature="0" />
    <path
       d="m 8988,913 2,-478 95,-3 95,-3 v 481 480 h -97 -98 z"
       id="path18"
       style="fill:#f2f2f2"
       inkscape:connector-curvature="0" />
    <path
       d="m 9250,910 c 0,-473 0,-480 20,-480 20,0 20,7 20,480 0,473 0,480 -20,480 -20,0 -20,-7 -20,-480 z"
       id="path20"
       style="fill:#f2f2f2"
       inkscape:connector-curvature="0" />
    <path
       d="m 1941,678 c -48,-125 -91,-239 -91,-243 0,-3 49,-5 109,-5 h 109 l 22,60 c 12,33 25,60 29,60 3,0 29,-7 56,-16 68,-20 209,-20 281,1 31,9 60,13 64,8 4,-4 15,-32 26,-60 l 18,-53 h 112 112 l -51,133 c -28,72 -52,134 -53,136 -2,2 -22,-13 -46,-32 -96,-79 -251,-126 -367,-113 -106,12 -197,51 -293,126 l -28,22 z"
       id="path22"
       style="fill:#f2f2f2"
       inkscape:connector-curvature="0" />
    <path
       d="m 4549,673 c -31,-78 -89,-234 -89,-238 0,-3 49,-5 109,-5 h 109 l 22,60 c 12,33 28,60 34,60 6,0 33,-7 60,-15 64,-19 192,-19 268,1 33,8 63,12 66,9 4,-3 16,-30 27,-58 l 21,-52 107,-3 c 70,-2 107,1 107,8 0,9 -89,250 -96,258 -1,2 -27,-15 -57,-37 -186,-141 -432,-139 -628,5 l -49,36 z"
       id="path24"
       style="fill:#f2f2f2"
       inkscape:connector-curvature="0" />
  </g>
</svg>
