<svg xmlns="http://www.w3.org/2000/svg" width="244.262" height="32.398" viewBox="0 0 244.262 32.398">
  <g id="Grupo_1366" data-name="Grupo 1366" transform="translate(-222.777 -394.91)">
    <rect id="Rectángulo_1" data-name="Rectángulo 1" width="32.398" height="32.398" transform="translate(222.777 394.911)" fill="#ff8f00"/>
    <rect id="Rectángulo_2" data-name="Rectángulo 2" width="32.398" height="32.398" transform="translate(259.198 394.911)" fill="#ff6a00"/>
    <rect id="Rectángulo_3" data-name="Rectángulo 3" width="32.398" height="32.398" transform="translate(295.402 394.911)" fill="#e14a00"/>
    <rect id="Rectángulo_4" data-name="Rectángulo 4" width="6.918" height="21.074" transform="translate(271.938 399.776)" fill="#303236"/>
    <rect id="Rectángulo_5" data-name="Rectángulo 5" width="6.918" height="21.073" transform="translate(308.145 400.101)" fill="#303236"/>
    <rect id="Rectángulo_6" data-name="Rectángulo 6" width="6.918" height="21.074" transform="translate(236.005 399.776)" fill="#303236"/>
    <rect id="Rectángulo_7" data-name="Rectángulo 7" width="21.073" height="6.918" transform="translate(264.861 407.179)" fill="#303236"/>
    <path id="Trazado_3" data-name="Trazado 3" d="M573.275,409.3h-3.9v.946h3.9a4.4,4.4,0,0,0,.041-.473,4.342,4.342,0,0,0-.041-.473" transform="translate(-132.989 -5.522)" fill="#303236"/>
    <rect id="Rectángulo_12" data-name="Rectángulo 12" width="0.944" height="9.045" transform="translate(380.592 399.73)" fill="#303236"/>
    <path id="Trazado_4" data-name="Trazado 4" d="M492.159,402.73v9.045h-.812l-5.905-7.328v7.328H484.5V402.73h.771l5.947,7.422V402.73Z" transform="translate(-100.421 -3)" fill="#303236"/>
    <path id="Trazado_5" data-name="Trazado 5" d="M508.793,402.73l-4.176,9.112h-.879l-4.175-9.112H500.6l3.578,7.847,3.578-7.847Z" transform="translate(-106.201 -3)" fill="#303236"/>
    <path id="Trazado_6" data-name="Trazado 6" d="M518.009,403.6v3.246h4.8v.877h-4.8v3.193h5.334v.864h-6.278v-9.044h6.278v.864Z" transform="translate(-112.917 -3.001)" fill="#303236"/>
    <path id="Trazado_7" data-name="Trazado 7" d="M533.057,402.406a4.122,4.122,0,0,1,2.394.679,2.683,2.683,0,0,1,1.13,1.969h-.931q-.333-1.823-2.541-1.823a2.688,2.688,0,0,0-1.655.466,1.484,1.484,0,0,0-.618,1.252q0,1.182,1.862,1.541l1.371.268q2.512.477,2.513,2.354a2.444,2.444,0,0,1-.931,1.994,3.773,3.773,0,0,1-2.434.746,3.993,3.993,0,0,1-2.613-.812,3.265,3.265,0,0,1-1.151-2.275h.931a2.522,2.522,0,0,0,.912,1.657,3.089,3.089,0,0,0,1.961.577,2.761,2.761,0,0,0,1.716-.485,1.55,1.55,0,0,0,.638-1.3q0-1.2-1.7-1.543l-1.568-.306q-2.5-.479-2.5-2.368a2.285,2.285,0,0,1,.878-1.875,3.648,3.648,0,0,1,2.342-.719" transform="translate(-117.67 -2.876)" fill="#303236"/>
    <path id="Trazado_8" data-name="Trazado 8" d="M549.947,403.6h-3.365v8.18h-.944V403.6h-3.366v-.864h7.675Z" transform="translate(-122.589 -3.001)" fill="#303236"/>
    <rect id="Rectángulo_13" data-name="Rectángulo 13" width="0.944" height="9.045" transform="translate(428.887 399.73)" fill="#303236"/>
    <path id="Trazado_9" data-name="Trazado 9" d="M586.115,409.1H581.38l-1.17,2.634H579.2l4.1-9.111h.9l4.1,9.111h-1.012Zm-.385-.865-1.981-4.469-1.982,4.469Z" transform="translate(-136.758 -2.959)" fill="#303236"/>
    <path id="Trazado_10" data-name="Trazado 10" d="M601.054,403.6h-3.366v8.18h-.944V403.6h-3.365v-.864h7.676Z" transform="translate(-142.199 -3.001)" fill="#303236"/>
    <path id="Trazado_11" data-name="Trazado 11" d="M609.258,403.6v3.246h4.8v.877h-4.8v3.193h5.333v.864h-6.276v-9.044h6.276v.864Z" transform="translate(-147.93 -3.001)" fill="#303236"/>
    <path id="Trazado_12" data-name="Trazado 12" d="M485.071,423.378H481.7v8.18h-.944v-8.18H477.4v-.864h7.675Z" transform="translate(-97.696 -10.591)" fill="#303236"/>
    <path id="Trazado_13" data-name="Trazado 13" d="M491.025,423.594a4.735,4.735,0,1,1-1.371,3.326,4.55,4.55,0,0,1,1.371-3.326m3.338,7.156a3.576,3.576,0,0,0,2.661-1.116,3.77,3.77,0,0,0,1.091-2.714,3.7,3.7,0,0,0-1.091-2.7,3.712,3.712,0,0,0-5.334,0,3.7,3.7,0,0,0-1.089,2.7,3.771,3.771,0,0,0,1.089,2.714,3.621,3.621,0,0,0,2.674,1.116" transform="translate(-102.4 -10.475)" fill="#303236"/>
    <rect id="Rectángulo_14" data-name="Rectángulo 14" width="0.944" height="9.045" transform="translate(400.695 411.922)" fill="#303236"/>
    <path id="Trazado_14" data-name="Trazado 14" d="M524.778,422.514v9.045h-.812l-5.905-7.328v7.328h-.944v-9.045h.771l5.947,7.421v-7.421Z" transform="translate(-112.937 -10.591)" fill="#303236"/>
    <path id="Trazado_15" data-name="Trazado 15" d="M541.354,422.514v9.045h-.811l-5.907-7.328v7.328h-.944v-9.045h.77l5.947,7.421v-7.421Z" transform="translate(-119.297 -10.591)" fill="#303236"/>
    <path id="Trazado_16" data-name="Trazado 16" d="M550.988,423.594a4.735,4.735,0,1,1-1.371,3.326,4.552,4.552,0,0,1,1.371-3.326m3.339,7.156a3.575,3.575,0,0,0,2.66-1.116,3.773,3.773,0,0,0,1.09-2.714,3.7,3.7,0,0,0-1.09-2.7,3.711,3.711,0,0,0-5.334,0,3.694,3.694,0,0,0-1.09,2.7,3.767,3.767,0,0,0,1.09,2.714,3.62,3.62,0,0,0,2.674,1.116" transform="translate(-125.408 -10.475)" fill="#303236"/>
    <path id="Trazado_17" data-name="Trazado 17" d="M575.167,422.514l-4.176,9.112h-.879l-4.176-9.112h1.037l3.578,7.847,3.578-7.847Z" transform="translate(-131.669 -10.591)" fill="#303236"/>
    <path id="Trazado_18" data-name="Trazado 18" d="M586.728,428.884h-4.734l-1.17,2.634h-1.012l4.1-9.113h.9l4.1,9.113H587.9Zm-.385-.865-1.981-4.469-1.983,4.469Z" transform="translate(-136.993 -10.549)" fill="#303236"/>
    <path id="Trazado_19" data-name="Trazado 19" d="M601.666,423.378H598.3v8.18h-.944v-8.18h-3.365v-.864h7.675Z" transform="translate(-142.434 -10.591)" fill="#303236"/>
    <path id="Trazado_20" data-name="Trazado 20" d="M609.872,423.378v3.245h4.8v.878h-4.8v3.193h5.333v.864h-6.276v-9.044h6.276v.864Z" transform="translate(-148.165 -10.591)" fill="#303236"/>
    <path id="Trazado_21" data-name="Trazado 21" d="M569.411,409.852a3.575,3.575,0,0,1-2.66,1.117,3.617,3.617,0,0,1-2.672-1.117,3.763,3.763,0,0,1-1.091-2.714,3.691,3.691,0,0,1,1.091-2.7,3.707,3.707,0,0,1,5.332,0,3.732,3.732,0,0,1,.579.776h1.058a4.694,4.694,0,0,0-.971-1.4,4.753,4.753,0,1,0,1.34,3.8h-.957a3.737,3.737,0,0,1-1.049,2.24" transform="translate(-130.175 -2.885)" fill="#303236"/>
    <path id="Trazado_22" data-name="Trazado 22" d="M576.656,409.3H575.7a4.326,4.326,0,0,1,.042.473,4.382,4.382,0,0,1-.042.473h.957c.014-.158.043-.31.043-.473a4.677,4.677,0,0,0-.044-.473" transform="translate(-135.416 -5.522)" fill="#303236"/>
    <rect id="Rectángulo_2232" data-name="Rectángulo 2232" width="4.701" height="21.315" transform="translate(336.697 399.529)" fill="#303236"/>
    <path id="Trazado_1413" data-name="Trazado 1413" d="M433.38,423.721h-4.7V406.943h-6.9v-4.537h18.5v4.537h-6.9Z" transform="translate(-76.355 -2.875)" fill="#303236"/>
    <rect id="Rectángulo_2233" data-name="Rectángulo 2233" width="4.698" height="21.315" transform="translate(367.949 399.529)" fill="#303236"/>
  </g>
</svg>
